.
 
http://www.scenetime.com    -  Hottest private tracker on the net. !!!

Sign up will close shortly !!  Join now 

        Seed back for speed


...................................NFO:.................................................                                                                                                     
       
     
     
       
       
     
     
                                         
                                         
                EXVID                    
                                         
         
                                         
         Filled the Archives             
                                         
         
                                         
                With:                    
                                         
         
                                         
                                    
     E240                           
                                    
     SP               (C) 2009      
                                         
     
     
     
                                                                                  
                                                                                   
              Ulzanas.Raid.1972.WS.PROPER.DVDRip.XviD-EXViD                         
                                                                                   
                                                                                  
     
                                                                                               
EXViD aims to iNTERNAL those releases which have been lost in the archives.
EXViD aims to PRE non-internal releases which have poor sources and are likely skipped by others.
 
http://www.imdb.com/title/tt0069436/
Subtitles: EN, FR, DE, IT, ES, PT, NL, SV, DA, FI, NO, IW, AR, RU, TR, EL
Date: 2011.08

Directors: Robert Aldrich

Genres: Adventure | Western

Plot:
Report reaches the US cavalry that the Apache leader Ulzana has left his reservation with a
band of followers. A compassionate young officer, Lieutenant DeBuin, is given a small company
to find him and bring him back; accompanying the troop is McIntosh, an experienced scout, and
Ke-Ni-Tay, an Apache guide. Ulzana massacres, rapes and loots across the countryside; and as
DeBuin encounters the remains of his victims, he is compelled to learn from McIntosh and to
confront his own naivity and hidden prejudices.

Cast:
Burt Lancaster 	 ... 	 McIntosh
Bruce Davison 	 ... 	 Lt. Garnett DeBuin
Jorge Luke 	 ... 	 Ke-Ni-Tay
Richard Jaeckel 	 ... 	 Sergeant
Joaqun Martnez 	 ... 	 Ulzana (as Joaquin Martinez)
Lloyd Bochner 	 ... 	 Capt. Charles Gates
Karl Swenson 	 ... 	 Willy Rukeyser
Douglass Watson 	 ... 	 Maj. Cartwright
Dran Hamilton 	 ... 	 Mrs. Riordan
John Pearce 	 ... 	 Corporal
Gladys Holland 	 ... 	 Mrs. Rukeyser
Margaret Fairchild 	 ... 	 Mrs. Abbie Ginsford
Aime Eccles 	 ... 	 McIntosh's Indian Woman (as Aimee Eccls)
Richard Bull 	 ... 	 Ginsford
Otto Reichow 	 ... 	 Steegmeyer

Stats:
Format                           : AVI
Format/Info                      : Audio Video Interleave
File size                        : 700 MiB
Duration                         : 1h 38mn
Overall bit rate                 : 989 Kbps
Writing application              : Nandub v1.0rc2
Writing library                  : Nandub build 1852/release

Video
ID                               : 0
Format                           : MPEG-4 Visual
Format profile                   : Advanced Simple@L5
Format settings, BVOP            : 2
Format settings, QPel            : No
Format settings, GMC             : No warppoints
Format settings, Matrix          : Default (H.263)
Codec ID                         : XVID
Codec ID/Hint                    : XviD
Duration                         : 1h 38mn
Bit rate                         : 858 Kbps
Width                            : 592 pixels
Height                           : 336 pixels
Display aspect ratio             : 16:9
Frame rate                       : 25.000 fps
Color space                      : YUV
Chroma subsampling               : 4:2:0
Bit depth                        : 8 bits
Scan type                        : Progressive
Compression mode                 : Lossy
Bits/(Pixel*Frame)               : 0.173
Stream size                      : 608 MiB (87%)
Writing library                  : XviD 64

Audio
ID                               : 1
Format                           : MPEG Audio
Format version                   : Version 1
Format profile                   : Layer 3
Mode                             : Joint stereo
Mode extension                   : MS Stereo
Codec ID                         : 55
Codec ID/Hint                    : MP3
Duration                         : 1h 38mn
Bit rate mode                    : Variable
Bit rate                         : 118 Kbps
Nominal bit rate                 : 128 Kbps
Channel(s)                       : 2 channels
Sampling rate                    : 48.0 KHz
Compression mode                 : Lossy
Stream size                      : 83.6 MiB (12%)
Alignment                        : Aligned on interleaves
Interleave, duration             : 24 ms (0.60 video frame)
Interleave, preload duration     : 149 ms
Writing library                  : LAME3.98r
Encoding settings                : -m j -V 4 -q 3 -lowpass 17 --abr 128




Release notes:
Ulzanas.Raid.1972.WS.DVDRip.XViD-iNFiNiTE = mono for stereo. Sample included for proof.

WS DVD's have stereo audio: http://www.dvdcompare.net/comparisons/film.php?fid=6522

enjoy!

Looking for:
75TB+ Archives
DUTCH/FLEMiSH Archives
                                                                                                    
Greets: CRBS EPiSODE FiCO FLS iLS KLASSiGER LiPSYNC MADE NODLABS RUNNER SPRiNTER      
   

                                                                    ASCII DONE BY XX^NFO 2oo9